<?xml version="1.0" encoding="UTF-8" standalone="no"?>
<!-- Created with Inkscape (http://www.inkscape.org/) -->

<svg
   xmlns:dc="http://purl.org/dc/elements/1.1/"
   xmlns:cc="http://creativecommons.org/ns#"
   xmlns:rdf="http://www.w3.org/1999/02/22-rdf-syntax-ns#"
   xmlns:svg="http://www.w3.org/2000/svg"
   xmlns="http://www.w3.org/2000/svg"
   xmlns:sodipodi="http://sodipodi.sourceforge.net/DTD/sodipodi-0.dtd"
   xmlns:inkscape="http://www.inkscape.org/namespaces/inkscape"
   id="svg2"
   version="1.1"
   inkscape:version="0.48.4 r9939"
   width="395.42969"
   height="496.28476"
   xml:space="preserve"
   sodipodi:docname="Opal_egg_plain.svg"><metadata
     id="metadata8"><rdf:RDF><cc:Work
         rdf:about=""><dc:format>image/svg+xml</dc:format><dc:type
           rdf:resource="http://purl.org/dc/dcmitype/StillImage" /><dc:title /></cc:Work></rdf:RDF></metadata><defs
     id="defs6"><clipPath
       clipPathUnits="userSpaceOnUse"
       id="clipPath16"><path
         d="M 0,600 600,600 600,0 0,0 0,600 z"
         id="path18"
         inkscape:connector-curvature="0" /></clipPath></defs><sodipodi:namedview
     pagecolor="#ffffff"
     bordercolor="#666666"
     borderopacity="1"
     objecttolerance="10"
     gridtolerance="10"
     guidetolerance="10"
     inkscape:pageopacity="0"
     inkscape:pageshadow="2"
     inkscape:window-width="1466"
     inkscape:window-height="921"
     id="namedview4"
     showgrid="false"
     inkscape:snap-bbox="false"
     inkscape:bbox-nodes="false"
     inkscape:object-paths="true"
     inkscape:snap-global="false"
     inkscape:zoom="1.2586667"
     inkscape:cx="42.557283"
     inkscape:cy="210.13986"
     inkscape:window-x="249"
     inkscape:window-y="54"
     inkscape:window-maximized="0"
     inkscape:current-layer="g10"
     showborder="true"
     borderlayer="false"
     inkscape:showpageshadow="true"
     fit-margin-top="0"
     fit-margin-left="0"
     fit-margin-right="0"
     fit-margin-bottom="0" /><g
     id="g10"
     inkscape:groupmode="layer"
     inkscape:label="Opal"
     transform="matrix(1.25,0,0,-1.25,-178.48269,616.15124)"
     style="display:inline"><g
       id="g12"
       transform="matrix(1,0,0,0.96541715,0,3.1839396)"><g
         id="g14"
         clip-path="url(#clipPath16)"><g
           id="g20"
           transform="translate(468.5674,299.999)"><path
             d="m -12.076271,-12.508863 c 0,-113.732997 -64.662915,-189.472967 -157.760919,-189.472967 -93.1,0 -155.22154,73.10652 -155.22154,186.839522 0,113.735 63.39273,221.076308 156.49273,221.076308 93.098,0 156.489729,-107.999669 156.489729,-221.734669"
             style="fill:#dedede;fill-opacity:1;fill-rule:nonzero;stroke:none"
             id="path22"
             inkscape:connector-curvature="0"
             sodipodi:nodetypes="csssc" /></g><g
           id="g24"
           transform="translate(468.5674,299.999)"><path
             d="m -11.440678,-11.850502 c 0,-113.733008 -63.391729,-190.131328 -156.489732,-190.131328 -93.1,0 -155.85713,78.37341 -155.85713,192.1064121 0,113.7349979 59.57917,215.1510579 152.67917,215.1510579 93.097997,0 159.667692,-103.39114 159.667692,-217.126142 z"
             style="fill:none;stroke:#525a63;stroke-width:4;stroke-linecap:butt;stroke-linejoin:miter;stroke-miterlimit:10;stroke-opacity:1;stroke-dasharray:none"
             id="path26"
             inkscape:connector-curvature="0"
             sodipodi:nodetypes="sssss" /></g><g
           id="g28"
           transform="translate(456.2031,299.999)"><path
             d="M -6.6737288,-12.508863 C -6.6737288,-119.38686 -69.934,-193.519 -156.203,-193.519 c -86.27,0 -147.67802,79.35909 -147.67802,186.2370902 0,106.8790018 60.13683,204.0947198 146.40683,204.0947198 86.269004,0 150.8549864,-102.21676 150.8549864,-209.09576"
             style="fill:#393847;fill-opacity:1;fill-rule:nonzero;stroke:none"
             id="path30"
             inkscape:connector-curvature="0"
             sodipodi:nodetypes="csssc" /></g></g></g><g
       id="g36"
       transform="matrix(1,0,0,0.96541715,299.7153,177.17586)"><path
         d="M 0,0 -53.951,21.534 0,119.775 0,0 z"
         style="fill:#384047;fill-opacity:1;fill-rule:nonzero;stroke:none"
         id="path38"
         inkscape:connector-curvature="0" /></g><g
       id="g40"
       transform="matrix(1,0,0,0.96541715,299.7153,177.17586)"><path
         d="M 0,0 53.951,22.572 0,119.775 0,0 z"
         style="fill:#3b776f;fill-opacity:1;fill-rule:nonzero;stroke:none"
         id="path42"
         inkscape:connector-curvature="0" /></g><g
       id="g44"
       transform="matrix(1,0,0,0.96541715,245.7642,197.96534)"><path
         d="M 0,0 0,69.613 53.951,98.241 0,0 z"
         style="fill:#3e3c74;fill-opacity:1;fill-rule:nonzero;stroke:none"
         id="path46"
         inkscape:connector-curvature="0" /></g><g
       id="g48"
       transform="matrix(1,0,0,0.96541715,245.7642,197.96534)"><path
         d="M 0,0 0,69.613 -29.195,99.435 -28.701,98.153 0,0 z"
         style="fill:#3b776f;fill-opacity:1;fill-rule:nonzero;stroke:none"
         id="path50"
         inkscape:connector-curvature="0" /></g><g
       id="g52"
       transform="matrix(1,0,0,0.96541715,353.666,198.96754)"><path
         d="M 0,0 0.567,68.94 -53.951,97.203 0,0 z"
         style="fill:#3d6eb1;fill-opacity:1;fill-rule:nonzero;stroke:none"
         id="path54"
         inkscape:connector-curvature="0" /></g><g
       id="g56"
       transform="matrix(1,0,0,0.96541715,353.666,198.96754)"><path
         d="M 0,0 0.57,68.575 29.852,98.903 29.368,97.203 0,0 z"
         style="fill:#4cb5de;fill-opacity:1;fill-rule:nonzero;stroke:none"
         id="path58"
         inkscape:connector-curvature="0" /></g><g
       id="g60"
       transform="matrix(1,0,0,0.96541715,299.4302,408.35745)"><path
         d="M 0,0 -53.951,-21.534 0,-119.775 0,0 z"
         style="fill:#4cb5de;fill-opacity:1;fill-rule:nonzero;stroke:none"
         id="path62"
         inkscape:connector-curvature="0" /></g><g
       id="g64"
       transform="matrix(1,0,0,0.96541715,299.4302,408.35745)"><path
         d="M 0,0 53.951,-21.534 0,-119.775 0,0 z"
         style="fill:#384a8f;fill-opacity:1;fill-rule:nonzero;stroke:none"
         id="path66"
         inkscape:connector-curvature="0" /></g><g
       id="g68"
       transform="matrix(1,0,0,0.96541715,245.479,325.3226)"><path
         d="m 0,0 0.143,-62.306 53.808,28.628 -0.989,1.194 L 0,0 z"
         style="fill:#3d6eb1;fill-opacity:1;fill-rule:nonzero;stroke:none"
         id="path70"
         inkscape:connector-curvature="0" /></g><g
       id="g72"
       transform="matrix(1,0,0,0.96541715,245.479,387.56796)"><path
         d="M 0,0 0.285,-126.781 -28.91,-96.96 0,0 z"
         style="fill:#384a8f;fill-opacity:1;fill-rule:nonzero;stroke:none"
         id="path74"
         inkscape:connector-curvature="0" /></g><g
       id="g76"
       transform="matrix(1,0,0,0.96541715,353.3809,387.56796)"><path
         d="M 0,0 0.855,-67.417 -53.951,-98.241 0,0 z"
         style="fill:#3d6eb1;fill-opacity:1;fill-rule:nonzero;stroke:none"
         id="path78"
         inkscape:connector-curvature="0" /></g><g
       id="g80"
       transform="matrix(1,0,0,0.96541715,353.3809,387.56796)"><path
         d="m 0,0 0.855,-126.781 27.816,28.628 1.466,1.699 L 0,0 z"
         style="fill:#3b776f;fill-opacity:1;fill-rule:nonzero;stroke:none"
         id="path82"
         inkscape:connector-curvature="0" /></g><g
       id="g84"
       transform="matrix(1,0,0,0.96541715,186,345.90703)"><path
         d="M 0,0 8.2486273,80.994692 57.856,96.807 59.479,43.153 z"
         style="fill:#3e3c74;fill-opacity:1;fill-rule:nonzero;stroke:none"
         id="path86"
         inkscape:connector-curvature="0"
         sodipodi:nodetypes="ccccc" /></g><g
       id="g88"
       transform="matrix(1,0,0,0.96541715,243.001,439.36578)"><path
         d="M 0,0 54.558407,44.332445 112.857,0.016 56.144,-32.119 z"
         style="fill:#3d6eb1;fill-opacity:1;fill-rule:nonzero;stroke:none"
         id="path90"
         inkscape:connector-curvature="0"
         sodipodi:nodetypes="ccccc" /></g><g
       id="g92"
       transform="matrix(1,0,0,0.96541715,414.9121,343.97619)"><path
         d="M 0,0 -3.4037077,71.163823 -58.198,98.823 -61.531,45.153 z"
         style="fill:#384a8f;fill-opacity:1;fill-rule:nonzero;stroke:none"
         id="path94"
         inkscape:connector-curvature="0"
         sodipodi:nodetypes="ccccc" /></g><g
       id="g96"
       transform="matrix(1,0,0,0.96541715,242.2114,145.85444)"><path
         d="m 0,0 3.553,53.978 -60.519,45.627 0.317797,-77.033097 z"
         style="fill:#39669d;fill-opacity:1;fill-rule:nonzero;stroke:none"
         id="path98"
         inkscape:connector-curvature="0"
         sodipodi:nodetypes="ccccc" /></g><g
       id="g100"
       transform="matrix(1,0,0,0.96541715,242.2114,145.85444)"><path
         d="M 0,0 57.789,32.443 114.513,-0.803 57.789,-41.301 0,0 z"
         style="fill:#3e3c74;fill-opacity:1;fill-rule:nonzero;stroke:none"
         id="path102"
         inkscape:connector-curvature="0" /></g><g
       id="g104"
       transform="matrix(1,0,0,0.96541715,185.2451,242.0153)"><path
         d="M 0,0 -32.829937,54.045105 0.755,107.613 31.324,53.807 z"
         style="fill:#384a8f;fill-opacity:1;fill-rule:nonzero;stroke:none"
         id="path106"
         inkscape:connector-curvature="0"
         sodipodi:nodetypes="ccccc" /></g><g
       id="g108"
       transform="matrix(1,0,0,0.96541715,414.2299,240.8434)"><path
         d="M 0,0 35.291475,53.430916 1,106.498 l -31.481,-51 z"
         style="fill:#3e3c74;fill-opacity:1;fill-rule:nonzero;stroke:none"
         id="path110"
         inkscape:connector-curvature="0"
         sodipodi:nodetypes="ccccc" /></g><g
       id="g112"
       transform="matrix(1,0,0,0.96541715,356.7246,145.0795)"><path
         d="m 0,0 -3.059,55.818 60.025,43.787 0,-79.288 L 0,0 z"
         style="fill:#384047;fill-opacity:1;fill-rule:nonzero;stroke:none"
         id="path114"
         inkscape:connector-curvature="0" /></g></g></svg>